<svg id="Layer_1" data-name="Layer 1" xmlns="http://www.w3.org/2000/svg" viewBox="0 0 1400 980">
  <defs>
    <style>
      .cls-1 {
        fill: #abf5eb;
      }

      .cls-2 {
        fill: #fff;
      }

      .cls-2, .cls-3, .cls-4, .cls-5, .cls-7, .cls-8 {
        fill-rule: evenodd;
      }

      .cls-3 {
        fill: #bbe6e6;
      }

      .cls-4 {
        fill: #7fc7d4;
      }

      .cls-5 {
        fill: #69a0a6;
      }

      .cls-6, .cls-8 {
        fill: #529696;
      }

      .cls-7 {
        fill: #6fadad;
      }
    </style>
  </defs>
  <rect id="bg" class="cls-1" width="1400" height="980"/>
  <path id="sun" class="cls-2" d="M141.491,327.4891a50.2588,50.2588,0,1,0-50.24361-50.2763A50.37106,50.37106,0,0,0,141.491,327.4891Z"/>
  <path id="right_near_cloud" data-name="right near cloud" class="cls-2" d="M1121.3842,21.785a39.26854,39.26854,0,0,1,39.2845,39.2827c0,1.1554-.07,2.2758-.14,3.3961a26.445,26.445,0,0,1,2.9061-.175,22.92956,22.92956,0,0,1,14.1802,4.8665,23.12105,23.12105,0,1,1,41.3504,19.1512,14.06191,14.06191,0,0,1,8.7882,4.8316,14.00014,14.00014,0,0,1,13.7952-11.6588,14.58979,14.58979,0,0,1,2.4859.2101,16.00442,16.00442,0,0,1-.1751-2.6259,20.02751,20.02751,0,1,1,39.2496,5.6719,10.66164,10.66164,0,0,1,9.0683,10.5034,11.02381,11.02381,0,0,1-.9104,4.3064,6.58423,6.58423,0,0,1,3.2213-.8403,6.71687,6.71687,0,0,1,6.6876,6.7222,10.27147,10.27147,0,0,1-.2453,2.3247L1383.0713,121H904.23358l62.7433-13.2482a9.05492,9.05492,0,0,1-2.1358-5.8364,8.54756,8.54756,0,0,1,7.77292-8.52,14.37,14.37,0,0,1,13.515-14.2032,14.26855,14.26855,0,0,1,28.4306,1.7416c0,.4901-.0351.973-.0701,1.4631a14.1025,14.1025,0,0,1,7.0376-1.8942,14.61541,14.61541,0,0,1,5.0069.9084,23.11907,23.11907,0,0,1,38.8644-23.2491,23.12451,23.12451,0,0,1,21.9532-16.7355,39.24193,39.24193,0,0,1,34.0326-19.6415Z"/>
  <path id="right_far_cloud" data-name="right far cloud" class="cls-2" d="M1223.5171,133.0861a22.79457,22.79457,0,0,1,22.7934,22.7923,19.05625,19.05625,0,0,1-.105,1.9957,13.68677,13.68677,0,0,1,1.7156-.1051,13.494,13.494,0,0,1,8.2281,2.801,13.39425,13.39425,0,1,1,23.9489,11.0986,8.02535,8.02535,0,0,1,5.0769,2.8009,8.1287,8.1287,0,0,1,8.018-6.7572,6.44412,6.44412,0,0,1,1.4354.14,11.03106,11.03106,0,0,1-.1049-1.5405,11.6243,11.6243,0,0,1,23.2485,0,11.34048,11.34048,0,0,1-.4901,3.2911,6.17793,6.17793,0,0,1,5.2519,6.092,5.74639,5.74639,0,0,1-.5252,2.4858,4.152,4.152,0,0,1,1.8557-.4552,3.85556,3.85556,0,0,1,3.8864,3.8863,3.19568,3.19568,0,0,1-.1399,1.0081L1375.2284,190h-277.583l36.3785-7.3801a4.72587,4.72587,0,0,1-1.2255-3.2,4.88106,4.88106,0,0,1,4.4817-4.891,8.24245,8.24245,0,0,1,7.8429-8.1523,8.27791,8.27791,0,0,1,16.4911,1.0193,6.81264,6.81264,0,0,1-.07.8409,8.23151,8.23151,0,0,1,4.0965-1.085,8.9028,8.9028,0,0,1,2.9061.5253,13.43639,13.43639,0,0,1,12.6396-17.8206,13.44888,13.44888,0,0,1,9.9087,4.3414,13.38883,13.38883,0,0,1,12.7097-9.6981,22.73523,22.73523,0,0,1,19.7124-11.4137Z"/>
  <path id="right_near_cloud-2" data-name="right near cloud" class="cls-2" d="M116.2312,127.2042a10.36251,10.36251,0,0,1,10.3639,10.3633,7.61751,7.61751,0,0,1-.035.9103,5.67365,5.67365,0,0,1,.7702-.035,5.96852,5.96852,0,0,1,3.7464,1.2604,6.11055,6.11055,0,0,1,12.0095,1.6105,6.25311,6.25311,0,0,1-1.0854,3.4661,3.71457,3.71457,0,0,1,2.3108,1.2605,3.6899,3.6899,0,0,1,3.6414-3.081,4.28957,4.28957,0,0,1,.6652.07,4.746,4.746,0,0,1-.07-.7002,5.287,5.287,0,0,1,10.5739,0,5.39348,5.39348,0,0,1-.21,1.5054,2.79055,2.79055,0,0,1,2.3808,2.766,2.90341,2.90341,0,0,1-.21,1.1203,1.66365,1.66365,0,0,1,.8403-.21,1.76335,1.76335,0,0,1,1.7506,1.7855,4.04706,4.04706,0,0,1-.07.9164L185.3119,154H58.95l16.5611-3.7873a2.88441,2.88441,0,0,1-.5602-1.7186,2.31463,2.31463,0,0,1,2.0308-2.3123,3.80579,3.80579,0,0,1,3.5713-3.7644c.2101-1.8556,2.2978-3.3527,4.2235-3.3527,2.0658,0,4.2235,1.6889,4.2235,3.7545v.3851c0-.3151.7133-.4901,1.3786-.4901a2.37186,2.37186,0,0,1,1.0919.2451,5.73528,5.73528,0,0,1-.4694-2.0307,6.04576,6.04576,0,0,1,6.0326-6.0919,5.90941,5.90941,0,0,1,4.4519,1.9956,6.10482,6.10482,0,0,1,5.7972-4.4465,10.36363,10.36363,0,0,1,8.9484-5.1816Z"/>
  <path id="right_far_cloud-2" data-name="right far cloud" class="cls-2" d="M199.66719,33.8289a29.91465,29.91465,0,0,1,29.9011,29.9347c0,.8752-.035,1.7156-.1051,2.5908a15.5606,15.5606,0,0,1,2.2059-.14,17.36454,17.36454,0,0,1,10.819,3.7112,17.59781,17.59781,0,1,1,31.4767,14.5647,10.73111,10.73111,0,0,1,6.6874,3.6762,10.651,10.651,0,0,1,10.5039-8.8579,10.90682,10.90682,0,0,1,1.8907.1401,17.82372,17.82372,0,0,1-.14-1.9607,15.26565,15.26565,0,0,1,30.5313,0,14.73436,14.73436,0,0,1-.6302,4.3065,8.04331,8.04331,0,0,1,6.8975,7.9825,8.49581,8.49581,0,0,1-.6652,3.2911,4.73116,4.73116,0,0,1,2.4509-.6303,5.088,5.088,0,0,1,5.07691,5.1118,13.24632,13.24632,0,0,1-.17511,2.0588L398.92609,110H34.2658L82.0585,99.6084a7.27744,7.27744,0,0,1-1.6106-4.6006,6.5998,6.5998,0,0,1,5.9172-6.5717A10.94786,10.94786,0,0,1,96.6239,77.6054a10.87626,10.87626,0,0,1,21.6731,1.3037c0,.3501,0,.7249-.035,1.075a10.999,10.999,0,0,1,5.357-1.4056,11.5,11.5,0,0,1,3.8164.6627A16.91354,16.91354,0,0,1,126.42,73.428a17.59734,17.59734,0,0,1,30.6014-11.8698,17.62217,17.62217,0,0,1,16.7011-12.7793,29.95663,29.95663,0,0,1,25.94469-14.95Z"/>
  <g id="middle_cloud" data-name="middle cloud">
    <path id="lower-right_cloud" data-name="lower-right cloud" class="cls-2" d="M57.1976,438.315a78.47878,78.47878,0,0,1,78.43,78.7405c0,2.3108-.2622,4.5866-.4373,6.8273a44.39415,44.39415,0,0,1,5.7686-.3501,45.91256,45.91256,0,0,1,28.3913,9.7681,46.31231,46.31231,0,1,1,82.80639,38.3725,28.06908,28.06908,0,0,1,17.6091,9.6281,28.04454,28.04454,0,0,1,27.659-23.3176,28.45592,28.45592,0,0,1,4.9362.4202,43.16988,43.16988,0,0,1-.3154-5.2517,40.14226,40.14226,0,0,1,80.28451,0,40.61887,40.61887,0,0,1-1.61061,11.3787,21.35018,21.35018,0,0,1,16.351,29.6546,13.41482,13.41482,0,0,1,19.8524,11.7988,16.806,16.806,0,0,1-.4902,4.0142L581.06369,636H1V462.5429C14,447.593,34.8593,438.315,57.1976,438.315Z"/>
    <path id="lower-left-cloud" class="cls-2" d="M1296.2041,414.6824a78.74632,78.74632,0,0,1,78.7442,78.7405c0,2.3107-.1051,4.5865-.3151,6.8622a44.47453,44.47453,0,0,1,5.7507-.3851c7.0727,0,14.6161,1.5755,19.6161,4.4114V612H860.95758l125.8016-25.7827a16.96078,16.96078,0,0,1,11.23919-28.1949,28.61233,28.61233,0,0,1,27.10013-28.3085,28.61,28.61,0,0,1,57.0011,3.5567,26.85111,26.85111,0,0,1-.1401,2.9036,28.43485,28.43485,0,0,1,14.1453-3.7475,28.07474,28.07474,0,0,1,10.0137,1.82,46.33064,46.33064,0,0,1,77.9039-46.6006,46.27917,46.27917,0,0,1,43.9763-33.5759,78.648,78.648,0,0,1,68.2054-39.3878Z"/>
    <g id="middle_cloud-2" data-name="middle cloud">
      <path class="cls-3" d="M1373.5018,500.2851c8.7532-1.1204,18.4982.2801,25.4982,4.0263V612H880.79028l109.34559-24.1722c-10.81909-12.1489-3.08119-27.5611,9.87363-28.6114.1401-15.1599,10.2238-25.912,25.2444-26.7172a28.62625,28.62625,0,0,1,28.3955-25.0525c16.9813,0,28.9908,11.8942,27.3101,28.7347,4.5517-2.6258,21.9882-1.2652,27.6253.8354-9.8386-29.1294,15.7558-60.0468,38.8644-60.0468,19.5372,0,32.212,5.6006,40.6851,14.8436,5.462-19.2212,20.662-31.0207,41.5648-31.2658,47.7227-82.4867,147.0939-36.8325,143.8027,39.7373Z"/>
      <path class="cls-3" d="M129.449,528.5393c12.2546-1.5755,31.4426-2.8359,41.1762,4.7615,24.8592-64.4209,118.2918-19.0111,76.87139,40.6832,7.0376.9453,18.9685,2.1707,23.3452,7.3174a28.04209,28.04209,0,0,1,32.5578-22.8974c-3.1162-23.9828,14.7908-40.9983,39.1249-40.9983,26.9599,0,42.0757,25.3132,34.583,50.8014,13.9701,2.1007,22.64851,17.8909,17.0464,30.6,10.3638-5.6719,21.4605,3.9091,18.1693,15.3929L582.06369,636H2V462.5429c51-47.3354,133.8914-8.5428,127.449,65.9964Z"/>
    </g>
  </g>
  <g id="mountain">
    <polygon class="cls-4" points="0 587.253 23.215 583.542 38.622 577.065 46.833 567.787 72.664 565.021 85.614 553.888 113.395 555.743 122.629 568.732 144.857 569.643 154.133 579.831 174.509 577.065 209.697 583.542 223.597 579.831 245.83 582.632 281.053 571.498 302.341 552.977 324.574 560.4 341.24 543.699 361.618 559.454 376.463 593.73 379.229 595.586 411.651 619.674 420.93 630.772 436.685 627.096 450.551 620.584 461.685 623.385 497.748 598.877 527.369 603.499 558.951 585.398 576.562 557.599 608.984 544.645 623.795 529.8 646.028 527.979 673.828 489.047 679.395 462.193 696.972 453.86 710.872 425.151 727.538 419.584 738.673 399.207 778.517 408.45 801.661 444.582 822.038 445.527 851.694 489.992 876.694 490.902 913.772 534.456 943.393 538.167 948.961 554.833 971.194 569.643 1012.894 571.099 1024.939 554 1038.804 554 1055.505 529.401 1070.316 536.567 1101.827 559.582 1114.782 587.317 1147.204 596.99 1182.427 565 1222.237 565 1231.515 547.872 1250.948 495.79 1294.504 496.584 1305.603 471.529 1336.204 474.266 1354.726 514.094 1384.216 527.986 1399 544.645 1399 980 0 980 0 587.253"/>
    <path class="cls-2" d="M420.92969,630.7724l15.7558-3.6762,13.8651-6.5121,11.1342,2.8009,36.0634-24.5079,29.621,4.6215,31.5817-18.1009,17.6115-27.799,16.211-6.4771,20.37761,2.4158,2.31078,17.6107-5.322,3.7112-8.5781,10.4334,5.1119,11.5537-.9454,2.8009,11.8344-7.1773,3.0111-20.4116,15.2657-6.022,17.1564-12.9542-17.1564,17.1556-6.47738.9103-1.85572,17.1205-5.5671,9.7332-11.0991,13.4443-13.445,15.265-20.83269,13.4443-.9453,1.4005-15.2657,15.265-34.7329,25.4883,16.211-1.8557,30.1112-16.2102,12.9548-.4552,13.90009-10.1883,18.9771-9.7331-3.6764,8.3326,26.3998-12.0439,7.3878-12.9542,1.4005-1.4004,18.0667-11.5887L688.639,603.1135l-4.16662,7.3873-1.8556,12.9893L675.229,635.0788l17.12128-7.8776,27.3452-29.1994,1.36552-1.3654,19.92238-12.9893,7.8779-15.2649-4.6217-14.8448,10.644-9.7332,13.4449-14.3546,1.8557-11.0986,11.5543,6.4771-2.3108,17.6107,4.1665,10.6434-4.6217,10.6435L764.162,580.4261l-6.47742,14.3547,6.9325-6.5122,20.8328-11.5537,14.8455-22.6873-13.445-1.4005,3.2562-32.4205-7.4227,2.7659-7.4228-34.2761-5.0769,19.9214-7.4227,2.3108-20.3776,9.7331-12.9548,2.3108-2.801-24.9981,7.7418-7.8776L737,476.1973V464.1534l-7.742,8.7879-1.06982-8.3327,14.2755-19.4314L740.113,459.5319l12.47968-10.1883,1.3905-12.4991,1.8507-18.0658-8.3356-5.1117-5.1131-9.7331,23.4231,1.5755h0l-27.1354-6.302-11.1343,20.3766-16.6663,5.5667-13.9002,28.7094-17.5765,8.3327-5.5671,26.8537-27.8003,38.9326-22.2333,1.8206-14.8105,14.8448-16.211,6.4771-13.6551,8.2277-5.567,34.031-9.9787,9.0329-.6653.9103,6.9326,4.8666,23.63379-2.0657,9.9437-4.6215L589.76229,617.013l-21.7781,9.0329-9.0333,1.3654-7.63289,4.4115-.63021-.2451-13.2699,1.8556-16.211,5.5668,15.7208-9.138,6.9676-7.5274,4.8668-.9453,1.4005-11.3437,8.7883-6.7222.7002-14.1096-5.0768,9.278-20.8678,8.7879-2.766,13.1993-25.9797,5.3217-7.1426,5.3218-9.0334,4.2013-14.8105,8.9979-20.1675,4.1664,14.3554-6.7222,11.8344-7.6325,17.7516-11.6588,3.0811-11.0286-20.9728,8.2627-8.5431-1.3304-9.8737,9.8732-6.9326.9103L443.408,632.8731Zm726.27441-33.814L1182.4272,565h39.8098l-34.0327,3.8093-19.9223,32.6796-23.5988,7.5029Zm75.0329-32.8826,9.2784-16.6654,19.4323-51.8518,43.5561.9103,11.0991-24.9981,11.8344,11.6587-14.3553,15.3,2.3109,5.0766-4.1666,6.022-10.1888,6.022.4552-12.9542-34.7329-1.4005,19.9224,26.3986-5.5636,18.521L1279,549.8262v9.278l8.3296,10.6434,21.3212-24.0878-5.1128-12.9542,18.0663-23.1775,9.2782,24.543-20.8678,11.1336-13.4102,22.2322,5.5671,3.7112,1.8558,19.4313,16.211-21.2869,5.5321,28.7093-24.0891,40.298,4.1666-13.4443-3.6764-28.2542c-1.6806-.5601-.9102-.4551-2.3458-.4551l-10.6441,4.6215-6.9324-24.543-14.3553-6.0219.4551-20.7722L1253.9937,549h-2.3108l-12.9898,22.2076-6.4774,7.1301-15.7559,13.7708-.9103,1.3361,6.0222-20.8989ZM223.59639,579.8309l-13.9001,3.7112L174.5082,577.065l-20.3775,2.7659-9.2785-10.1883-22.2332-.9103-9.2435-12.9892-27.8003-1.8556,19.2222,6.6172,2.3108,6.0219,9.2785,3.6087L122.8641,577h-9.7337l6.0223,7.0348-9.2435-1.5943-15.7558-3.7731,9.2785,8.2843,33.7875,5.0524,18.0667,11.1215-8.7883-8.8289-22.6884-9.2461,18.5219-6.9687,14.3553,7.4216,2.766,6.0216,11.1342,1.8554,3.2212,7.4223,8.8232,9.2429-21.3229-.9103,24.089,5.0767,26.85489-5.5669-21.28789-.9102,11.09909-12.044-18.977-13.4443,25.9446,6.5121Zm104.934,60.7797-6.9676-12.9542-.4552-10.6434,6.47741,12.0089Zm102.8331,23.1775-17.1564-4.1663,10.679,9.243,20.3776,1.4005,18.0667-11.1337-19.4672,6.0219Zm-54.6553-33.8209L370.686,619.7789l-17.61151-6.4771-2.7661-6.9673.9104,22.6874,11.1341,9.7331,3.2212,14.3546,27.8003,21.322-5.1119-12.9542-3.2212-18.0658,9.73371,2.3107,7.38769,9.243-8.3331-15.265-9.73359-4.3764Zm34.9783-10.2934L380,604.4789v10.1883l-8.82351-.9103-7.8956-11.5888-10.6528-12.9542,5.5627-.9453-9.2807-14.8098-.9114-15.755-6.513-6.022-.2453-7.9826,20.3774,15.7551,14.863,34.2761Zm663.28591-.3501,23.5987-7.6325-9.6986,8.5428-7.8779,9.7332-14.3554,3.256,7.3878-5.5668ZM971.19378,569.6426l31.96692,6.127-10.18883,6.0219-7.21269,4.2714,25.73462,18.416,6.5124-3.221,6.4774,3.221-2.3109,7.2123,10.1888,15.0199-1.8557,25.9434,6.0223-21.777,9.7336,1.4004,8.7882-8.7878,6.0222-15.3-19.4671,14.3546,1.8556-21.2868,12.0445-6.4771,1.4005-6.9673,17.1214-24.0878-18.5219-34.3249L1038.8039,554h-13.8651l-12.0445,17.0993Zm-112.3216,45.2697,12.2895-3.2211-12.2895,7.8426-8.7883,2.3107Zm6.2672-46.5651-27.3451,6.9672-10.1887,16.6655,23.6337-8.7879-15.7558,26.8537-24.0889,20.8318,40.2999-22.2323,12.4996-32.4205Z"/>
  </g>
  <polygon id="grass" class="cls-5" points="0 635.324 10.868 615.262 20.875 635.324 30.976 623.595 40.179 641.206 46.637 635.324 51.285 648.628 64.244 635.324 78.151 656.016 86.488 643.972 92.97 659.727 99.486 650.484 105.968 663.438 115.218 642.151 124.503 656.016 133.788 642.151 142.127 656.016 155.091 635.324 174.572 665.294 184.768 651.394 191.25 666.204 201.446 653.25 214.411 679.193 224.607 659.727 235.749 674.572 248.713 656.961 262.623 676.392 271.908 670.86 280.247 694.003 287.675 676.392 292.3 690.292 305.264 676.392 309.924 698.624 325.656 683.815 336.798 696.804 346.994 674.572 352.565 683.815 367.387 669.005 374.815 687.526 382.593 671.946 386.868 694.948 392.754 686.511 405.403 709.758 415.319 677.548 422.081 694.003 435.886 669.565 447.098 693.093 460.377 679.753 467.525 696.804 478.772 676.287 491.596 700.48 496.256 691.237 508.975 706.292 516.648 687.526 528.351 699.745 537.706 694.843 545.38 707.902 557.433 687.526 565.281 703.281 582.205 686.02 589.878 697.714 596.36 682.904 608.413 699.57 617.698 680.103 631.608 704.191 635.287 687.526 643.661 704.191 662.196 665.294 680.732 694.948 687.214 674.572 700.002 688.961 705.749 669.915 719.659 690.292 726.141 678.248 735.426 704.191 745.622 688.436 751.193 706.047 766.96 681.049 786.406 701.425 797.548 676.724 820.708 703 823.511 703 833.708 676.724 842.047 693.259 855.011 682.042 866.153 686.657 875.403 673.647 880.974 681.059 886.545 655.111 903.223 675.485 907.848 666.205 925.472 681.049 938.436 660.672 948.632 671.771 960.685 661.583 964.399 668.06 975.541 643.972 984.791 656.016 989.451 632.873 1004.273 661.582 1010.755 654.16 1018.183 672.716 1031.147 666.204 1041.343 690.292 1052.485 678.248 1061.735 703.281 1072.877 681.959 1083.073 694.948 1096.037 675.482 1110.893 683.815 1116.429 665.294 1141.481 681.049 1147.963 649.539 1163.731 664.383 1175.784 629.162 1185.98 670.86 1195.23 655.105 1203.569 685.67 1215.622 668.059 1223.05 681.049 1230.478 673.626 1234.192 687.526 1249.013 673.626 1269.405 691.237 1274.03 672.716 1287.029 687.526 1307.422 663.438 1323.189 681.049 1342.635 672.716 1358.402 661.582 1372.312 664.383 1373.223 636.584 1384.365 640.296 1388.609 618.974 1400 628.252 1400 980 0 980 0 635.324"/>
  <g id="road">
    <rect class="cls-6" x="1" y="752" width="1399" height="228"/>
    <g id="road-2" data-name="road">
      <polygon class="cls-7" points="640.551 752 759.49 752 1340.986 980 59.02 980 640.551 752"/>
      <path class="cls-2" d="M654.94108,752h3.6763L154.4304,980H114.9007Zm90.1235,0h-3.6414L1245.5753,980h39.5296Zm-46.5323,1h2.9761l.14,4h-3.2561Zm3.1512,5,.3851,6h-4.0965l.3501-6Zm.6652,9,.5602,11h-5.7071l.63022-11Zm.91032,16,.94538,12h-8.4032l1.0505-12Zm1.43558,19,.7352,11h-10.854l.7353-11Zm1.3655,21,.9453,13h-13.9702l.9104-13Zm1.6806,26,1.3655,19h-18.2067l1.36552-19Zm2.2758,34,2.3809,35h-24.7892l2.3809-35Zm3.4313,51,2.626,41h-32.1419l2.626-41Z"/>
    </g>
  </g>
  <g id="tree-right">
    <g>
      <path class="cls-2" d="M1071.5957,536.2768c11.6943,20.7267,25.0343,34.8013,46.2521,49.331-8.1579,1.5755-14.4953,4.0263-22.6183,4.9016,9.8386,8.0176,18.3818,17.0505,29.5159,25.1031-5.427,3.3261-10.9941,6.5821-20.3776,8.2977,13.4451,6.8272,26.5399,15.8251,31.7918,20.9718-5.0768,4.2363-11.6943,9.278-22.2332,11.5887,10.9591,5.1117,23.5638,13.9696,28.4656,18.8011a56.6078,56.6078,0,0,1-24.9993,12.3591c15.7558,8.3676,28.8857,17.3656,34.6278,23.0024a55.48809,55.48809,0,0,1-21.2878,11.4838,96.56515,96.56515,0,0,1,32.1418,21.4969c-12.3946,10.2934-45.6919,18.9411-77.0635,21.672a180.21633,180.21633,0,0,0,4.0965,26.2235c-12.8148,6.5122-24.8592,6.127-35.1181.035a162.87647,162.87647,0,0,0,6.0223-25.6633c-26.4348-1.8906-59.0669-8.1576-74.6827-21.497,7.80787-6.1269,18.767-13.3743,30.4963-21.2869a101.4676,101.4676,0,0,1-22.09323-7.7375c9.03333-7.1073,22.33833-16.5953,35.71333-26.9937-10.3639-1.9607-19.5723-4.7615-26.6099-8.3677,7.6678-6.022,18.8019-14.0045,30.1812-22.7574-9.5936-1.8206-18.1017-4.3764-24.6142-7.7025,8.5082-6.6872,21.6731-15.9652,34.2077-26.0484a99.30954,99.30954,0,0,1-26.4348-8.5428c8.8933-7.0023,20.7277-16.8755,31.8269-27.4839a87.75483,87.75483,0,0,1-15.966-6.3721c14.7755-11.5888,27.1001-27.624,38.7594-44.8145Z"/>
      <path class="cls-8" d="M1071.5957,536.2768c11.6943,20.7267,26.995,38.1974,48.1079,50.4164-8.1931,1.5754-16.3511,2.9409-24.4741,3.8162a134.29342,134.29342,0,0,0,31.9669,25.8033c-5.4621,3.3261-13.4451,5.8819-22.8286,7.5975,14.2504,9.7332,28.5707,17.6107,33.7876,22.7574-5.0769,4.2013-13.6901,7.4924-24.229,9.8031,13.1649,8.5779,25.3494,15.5801,30.2863,20.4117-5.6021,4.6565-15.1256,8.2277-26.82,10.7485,15.5458,10.2233,30.1462,18.5209,35.9233,24.1928-5.0419,4.1664-12.9197,7.5975-22.5833,10.2934,14.6704,9.383,27.7652,17.0855,33.2973,22.5823-12.3946,10.2583-45.797,18.661-77.2036,21.3919a150.63577,150.63577,0,0,0,4.8318,26.3635,38.20367,38.20367,0,0,1-36.8688-.9103,162.87647,162.87647,0,0,0,6.0223-25.6633c-26.4348-1.8906-56.0558-8.2626-71.67162-21.6019,7.80792-6.127,30.11122-16.2803,51.81932-17.6108-22.7235-1.9256-37.4289-8.1926-43.52123-11.3087,9.03333-7.1073,33.19233-22.3722,55.49563-25.1381-23.4587-1.2604-39.7048-6.7222-46.7424-10.3283,7.6679-6.022,30.0762-19.7814,55.3206-21.637-32.317-1.9607-41.9806-6.3021-48.493-9.6632,8.5081-6.6872,27.8003-18.8361,54.2351-22.8974-23.8439-2.2057-39.3896-6.8973-46.9524-10.7485,8.9283-7.0023,33.9626-21.9521,50.3837-25.7684-14.3554-.7352-31.0915-6.302-32.282-8.9979,9.6986-8.6828,25.2444-26.4686,33.1923-43.9042Z"/>
    </g>
    <g>
      <path class="cls-2" d="M1272.7257,394.5508c21.9182,38.9677,47.0224,65.3662,86.8673,92.6751-15.3707,2.9759-27.2401,7.5624-42.5059,9.173,18.4519,15.0548,34.5579,32.0353,55.4607,47.1952-10.2238,6.1971-20.6577,12.3591-38.2692,15.5801,25.2093,12.8142,49.8585,29.6896,59.6971,39.3878-9.5585,7.9126-22.0844,17.4006-41.9018,21.742C1368.915,628.1465,1388,640.6806,1399,649.9587v10.6784a105.53569,105.53569,0,0,1-40.51,18.2409A402.92109,402.92109,0,0,1,1399,703.0009v34.9063c-3,2.1706-9.7687,4.0963-15.4758,5.6718,5.5321,2.2407,12.4758,4.6565,15.4758,7.1423v54.7228c-28,9.2079-64.7478,16.1752-99.7608,19.2212,2.4859,26.9937,6.5431,44.0443,7.8386,49.2959-24.0889,12.184-46.6745,11.4488-65.9666.0351,2.6959-7.4574,8.1394-27.2388,11.3256-48.1756-49.6134-3.5362-110.913-15.37-140.2539-40.4031,14.6705-11.5188,35.2622-25.1031,57.2854-40.018-15.8959-3.8163-30.0391-8.6128-41.4883-14.4947,16.9812-13.3393,41.9115-31.1251,67.0858-50.7314-19.4671-3.6763-36.7631-8.893-49.963-15.6852,14.3904-11.3086,35.2934-26.2584,56.6513-42.7488-17.9967-3.3961-33.9974-8.1926-46.217-14.4597,15.9659-12.5691,40.6501-30.0047,64.2489-48.9108-18.4168-3.5012-35.5382-8.7879-49.6834-16.0703,16.7362-13.1642,38.9695-31.6852,59.7672-51.6067a168.30757,168.30757,0,0,1-29.9361-11.9388c27.7303-21.8121,50.8739-51.8869,72.792-84.2024Z"/>
      <path class="cls-8" d="M1272.7257,394.5508c21.9182,38.9677,50.6988,71.7733,90.3335,94.7407-15.3707,2.941-30.7063,5.4968-45.9721,7.1074a251.71781,251.71781,0,0,0,60.0473,48.4907c-10.2238,6.232-25.2443,11.0636-42.8558,14.2846,26.7499,18.2409,53.6048,33.0157,63.4785,42.7139-9.5585,7.9125-25.8658,14.0745-45.6832,18.4159C1370.3856,632.2079,1388,642.5012,1399,650.7289v14.3896c-10,5.6719-24.4041,10.2584-40.51,13.7595,14.5303,9.5582,29.51,18.241,40.51,25.8384v33.926c-3,1.7856-9.9787,3.4311-15.4758,4.9366,5.287,3.3961,10.4758,6.6521,15.4758,9.8032v54.5477c-28,8.7528-63.6274,15.3-97.8001,18.2409a276.27413,276.27413,0,0,0,9.1341,49.506c-24.0889,12.219-49.9307,9.7332-69.2228-1.6805,2.6959-7.4574,8.1394-27.2388,11.3256-48.1756-49.6134-3.5362-105.2409-15.5801-134.5818-40.6132,14.6704-11.5187,56.5501-30.5649,97.3052-33.0507-42.6458-3.6062-70.304-15.37-81.7182-21.2519,16.9463-13.3393,62.3241-42.0136,104.2347-47.2303-44.0814-2.3458-74.5771-12.6041-87.8121-19.3963,14.4254-11.3087,56.4762-37.147,103.9188-40.6132-60.6775-3.7112-78.8491-11.8688-91.0687-18.1358,15.966-12.5341,52.2045-35.4316,101.8529-42.994-44.7816-4.1313-74.0174-12.9542-88.1627-20.2366,16.7362-13.1642,63.7937-41.2433,94.5702-48.3506-26.8901-1.4355-58.3317-11.8689-60.6076-16.9455,18.2068-16.3153,47.4076-49.6811,62.3582-82.4518Z"/>
    </g>
  </g>
  <g id="tree-left">
    <g>
      <path class="cls-2" d="M307.99739,569.2225c-11.69439,20.7617-25.0343,34.8012-46.2872,49.366,8.193,1.5755,14.5304,4.0263,22.6534,4.8666-9.83859,8.0175-18.4168,17.0505-29.551,25.1381,5.4621,3.2911,11.0291,6.5822,20.4126,8.2977-13.445,6.8272-26.5748,15.8251-31.7918,20.9718,5.0769,4.2014,11.6594,9.278,22.2333,11.5887-10.9941,5.0767-23.5638,13.9696-28.4656,18.8011a56.64862,56.64862,0,0,0,24.9643,12.3591c-15.7559,8.3677-28.8507,17.3305-34.5929,23.0024a55.56843,55.56843,0,0,0,21.2529,11.4487,96.77446,96.77446,0,0,0-32.1419,21.532c12.3946,10.2583,45.727,18.9411,77.0986,21.637a173.841,173.841,0,0,1-4.1315,26.2585c12.8147,6.5122,24.8592,6.092,35.153.035a163.91591,163.91591,0,0,1-6.0222-25.6633c26.3998-1.8906,59.0319-8.1926,74.6827-21.497-7.8079-6.162-18.767-13.3743-30.4963-21.3218a99.34049,99.34049,0,0,0,22.05821-7.7375c-8.99841-7.0723-22.30331-16.5604-35.67831-26.9938,10.3639-1.9607,19.53731-4.7266,26.5749-8.3328-7.6679-6.0219-18.802-14.0045-30.1462-22.7923,9.5935-1.7856,18.1017-4.3414,24.6141-7.7025-8.5081-6.6522-21.673-15.9652-34.2077-26.0135,9.7687-1.8906,18.907-4.6915,26.4348-8.5777-8.9283-7.0023-20.76259-16.8405-31.8268-27.484a89.61769,89.61769,0,0,0,15.9659-6.337c-14.7754-11.6238-27.1-27.6239-38.7593-44.8495Z"/>
      <path class="cls-8" d="M307.99739,569.2225c-11.69439,20.7617-26.995,38.2324-48.1079,50.4513,8.1931,1.5755,16.3511,2.941,24.4741,3.7813a135.2904,135.2904,0,0,1-31.9669,25.8384c5.4271,3.291,13.445,5.8819,22.8285,7.5974-14.2503,9.7331-28.5706,17.5757-33.8225,22.7574,5.0769,4.2013,13.6901,7.4924,24.264,9.8031-13.1999,8.5778-25.3844,15.5801-30.2863,20.4117,5.6021,4.6215,15.12561,8.2277,26.785,10.7485-15.5108,10.2233-30.1462,18.5209-35.8883,24.1928,5.0418,4.1664,12.9197,7.5974,22.5483,10.2583-14.67039,9.4181-27.7303,17.1206-33.2973,22.5823,12.3946,10.2934,45.832,18.6961,77.2036,21.427a147.11209,147.11209,0,0,1-4.7968,26.3285,38.211,38.211,0,0,0,36.8687-.8753,163.91591,163.91591,0,0,1-6.0222-25.6633c26.3998-1.8906,56.0208-8.2977,71.67161-21.637-7.80791-6.127-30.11121-16.2452-51.81931-17.5757,22.6885-1.9256,37.4289-8.1927,43.5212-11.3436-9.0333-7.0723-33.1923-22.3373-55.5306-25.1382,23.49371-1.2604,39.73971-6.6872,46.7773-10.3284-7.6678-6.0219-30.0761-19.7814-55.3205-21.6019,32.282-1.9957,41.9806-6.3371,48.458-9.6632A119.54039,119.54039,0,0,0,312.304,658.6765c23.87879-2.2058,39.42459-6.8973,46.95239-10.7835-8.8933-7.0023-33.9626-21.9521-50.3487-25.7334,14.32031-.7702,31.0565-6.302,32.282-9.0329-9.6986-8.6828-25.2444-26.4335-33.1923-43.9042Z"/>
    </g>
    <g>
      <path class="cls-2" d="M92.6871,381.8767C69.5785,422.875,43.1788,450.639,1.23319,479.4184c16.176,3.1159,29.30411,7.9475,45.37511,9.6281C31.2376,501.6156,18,515.41,2,528.5393V546.15a94.40977,94.40977,0,0,0,27.1701,8.9979C19.8216,559.8744,9,565.1611,2,570.4479V617.258a60.26083,60.26083,0,0,0,8.2631,2.2057C7.56707,620.7242,4,622.0896,2,623.5601v57.2085a6.52436,6.52436,0,0,0,1.40052.3152L2,681.819V825.0854a516.547,516.547,0,0,0,63.2352,9.4531,338.55109,338.55109,0,0,1-8.4373,51.8518c25.3144,12.8492,48.9661,12.0789,69.2737.07-2.8361-7.8775-8.6218-28.6743-11.983-50.6964,52.2394-3.7463,116.694-16.1753,147.57549-42.5388-15.4407-12.114-37.1334-26.4336-60.312-42.0837,16.7362-4.0262,31.60691-9.1029,43.6513-15.2999-17.8566-14.0045-44.1212-32.7707-70.591-53.3573,20.4826-3.8863,38.68689-9.3481,52.587-16.5254-15.1606-11.9039-37.185-27.6239-59.62829-44.9895,18.942-3.5712,35.78259-8.6479,48.63239-15.23-16.8063-13.1993-42.78619-31.5452-67.61039-51.4317,19.3622-3.7112,37.3937-9.313,52.30929-16.9455-17.64659-13.8644-41.03529-33.3308-62.95349-54.3026a180.01236,180.01236,0,0,0,31.5467-12.569c-29.2008-22.9325-53.5699-54.5827-76.6085-88.6138Z"/>
      <path class="cls-8" d="M93.3156,381.8767C70.8023,421.8247,41,455.6457,2,479.6985v2.4507c15,2.871,30.2162,5.3218,45.2368,6.8973C33.7918,503.7512,18,517.0555,2,528.6793v19.5364c7,2.7659,17.1914,5.0766,27.1701,6.9322C19.8916,561.45,10,567.3669,2,572.8286v44.6745c2,.6652,5.462,1.3305,8.2631,1.9606C7.497,621.2843,4,623.0349,2,624.7855v55.9831a6.52436,6.52436,0,0,0,1.40052.3152L2,681.994V827.2562a558.44764,558.44764,0,0,0,61.1694,8.8928c-2.5909,28.3942-8.4722,46.6001-9.8027,52.0969,25.3144,12.8492,52.3973,10.2233,72.7049-1.7856-2.8361-7.8775-8.6218-28.6743-11.983-50.6964,52.2394-3.7463,110.74179-16.3853,141.62329-42.7489-15.4408-12.1139-59.54179-32.1404-102.43269-34.8013,44.88669-3.7811,73.97269-16.1752,86.01709-22.3722-17.8566-14.0045-65.65419-44.1843-109.73559-49.6811,46.3922-2.4858,78.49669-13.2693,92.39679-20.4116-15.1606-11.9039-59.41819-39.1077-109.34679-42.7489,63.8637-3.9213,82.9802-12.4991,95.83-19.0812C191.6344,590.7194,153.54,566.6316,101.2656,558.6491c47.1275-4.3415,77.8687-13.6545,92.7843-21.287-17.6115-13.8644-67.12-43.414-99.542-50.8715,28.3255-1.5054,61.727-12.499,64.1078-17.8558-19.1871-17.1555-49.5792-52.2719-65.3001-86.7581Z"/>
    </g>
  </g>
</svg>
