<?xml version="1.0" encoding="utf-8"?>
<!-- Generator: Adobe Illustrator 24.3.0, SVG Export Plug-In . SVG Version: 6.00 Build 0)  -->
<svg version="1.1" id="Layer_1" xmlns="http://www.w3.org/2000/svg" xmlns:xlink="http://www.w3.org/1999/xlink" x="0px" y="0px"
	 viewBox="0 0 1400 980" style="enable-background:new 0 0 1400 980;" xml:space="preserve">
<style type="text/css">
	.st0{fill-rule:evenodd;clip-rule:evenodd;fill:#FFFFFF;}
	.st1{fill-rule:evenodd;clip-rule:evenodd;fill:#BBE6E6;}
	.st2{fill-rule:evenodd;clip-rule:evenodd;fill:#7FC7D4;}
	.st3{fill-rule:evenodd;clip-rule:evenodd;fill:#69A0A6;}
	.st4{fill:#529696;}
	.st5{fill-rule:evenodd;clip-rule:evenodd;fill:#6FADAD;}
	.st6{fill-rule:evenodd;clip-rule:evenodd;fill:#529696;}
</style>
<path id="sun" class="st0" d="M141.5,327.5c27.8,0,50.3-22.5,50.3-50.2S169.3,227,141.5,227c-27.8,0-50.3,22.5-50.3,50.2
	C91.3,304.9,113.8,327.4,141.5,327.5z"/>
<path id="right_near_cloud" class="st0" d="M1121.4,21.8c21.7,0,39.3,17.6,39.3,39.3c0,0,0,0,0,0c0,1.2-0.1,2.3-0.1,3.4
	c1-0.1,1.9-0.2,2.9-0.2c5.1,0,10.1,1.7,14.2,4.9c3.3-12.3,16-19.6,28.3-16.3c12.3,3.3,19.6,16,16.3,28.3c-0.7,2.5-1.8,5-3.3,7.1
	c3.4,0.5,6.6,2.2,8.8,4.8c1.1-6.7,7-11.7,13.8-11.7c0.8,0,1.7,0.1,2.5,0.2c-0.1-0.9-0.2-1.7-0.2-2.6c0-11.1,9-20,20.1-20
	c11.1,0,20,9,20,20.1c0,1.9-0.3,3.8-0.8,5.6c5.2,0.8,9,5.2,9.1,10.5c0,1.5-0.3,2.9-0.9,4.3c1-0.6,2.1-0.8,3.2-0.8
	c3.7,0,6.7,3,6.7,6.7c0,0.8-0.1,1.6-0.2,2.3l82.1,13.2H904.2l62.7-13.2c-1.4-1.6-2.1-3.7-2.1-5.8c0-4.4,3.4-8.1,7.8-8.5
	c0.1-7.5,6-13.8,13.5-14.2c1-7.8,8.1-13.4,15.9-12.4c7.2,0.9,12.5,7,12.5,14.2c0,0.5,0,1-0.1,1.5c2.1-1.2,4.6-1.9,7-1.9
	c1.7,0,3.4,0.3,5,0.9c-4.2-12.1,2.1-25.2,14.2-29.4c8.7-3,18.4-0.6,24.7,6.2c2.8-9.8,11.7-16.6,22-16.7
	C1094.4,29.3,1107.3,21.8,1121.4,21.8L1121.4,21.8z"/>
<path id="right_far_cloud" class="st0" d="M1223.5,133.1c12.6,0,22.8,10.2,22.8,22.8c0,0.7,0,1.3-0.1,2c0.6-0.1,1.1-0.1,1.7-0.1
	c3,0,5.9,1,8.2,2.8c1.9-7.1,9.3-11.4,16.4-9.5s11.4,9.3,9.5,16.4c-0.4,1.5-1,2.9-1.9,4.1c2,0.3,3.8,1.3,5.1,2.8
	c0.7-3.9,4.1-6.8,8-6.8c0.5,0,1,0,1.4,0.1c-0.1-0.5-0.1-1-0.1-1.5c0-6.4,5.2-11.6,11.7-11.6c6.4,0,11.6,5.2,11.6,11.6
	c0,1.1-0.2,2.2-0.5,3.3c3,0.5,5.2,3,5.3,6.1c0,0.9-0.2,1.7-0.5,2.5c0.6-0.3,1.2-0.4,1.9-0.5c2.1,0,3.9,1.7,3.9,3.8c0,0,0,0,0,0.1
	c0,0.3,0,0.7-0.1,1l47.6,7.4h-277.6l36.4-7.4c-0.8-0.9-1.2-2-1.2-3.2c0-2.6,1.9-4.7,4.5-4.9c0-4.4,3.5-7.9,7.8-8.2
	c0.6-4.5,4.7-7.8,9.2-7.2c4.1,0.5,7.2,4,7.2,8.2c0,0.3,0,0.6-0.1,0.8c1.2-0.7,2.7-1.1,4.1-1.1c1,0,2,0.2,2.9,0.5
	c-2.4-7,1.3-14.7,8.3-17.1c1.4-0.5,2.9-0.7,4.3-0.7c3.8,0,7.4,1.6,9.9,4.3c1.6-5.7,6.8-9.6,12.7-9.7
	C1207.9,137.4,1215.4,133.1,1223.5,133.1L1223.5,133.1z"/>
<path id="right_near_cloud-2" class="st0" d="M116.2,127.2c5.7,0,10.4,4.6,10.4,10.4c0,0,0,0,0,0c0,0.3,0,0.6,0,0.9
	c0.3,0,0.5,0,0.8,0c1.4,0,2.7,0.4,3.7,1.3c0.9-3.3,4.2-5.2,7.5-4.3c2.7,0.7,4.5,3.1,4.5,5.9c0,1.2-0.4,2.4-1.1,3.5
	c0.9,0.1,1.7,0.6,2.3,1.3c0.3-1.8,1.8-3.1,3.6-3.1c0.2,0,0.4,0,0.7,0.1c0-0.2-0.1-0.5-0.1-0.7c0-2.9,2.4-5.3,5.3-5.3
	c2.9,0,5.3,2.4,5.3,5.3c0,0.5-0.1,1-0.2,1.5c1.4,0.2,2.4,1.4,2.4,2.8c0,0.4-0.1,0.8-0.2,1.1c0.3-0.1,0.5-0.2,0.8-0.2
	c1,0,1.8,0.8,1.8,1.8c0,0,0,0,0,0c0,0.3,0,0.6-0.1,0.9l21.7,3.8H59l16.6-3.8c-0.4-0.5-0.6-1.1-0.6-1.7c0-1.2,0.9-2.2,2-2.3
	c0-2,1.6-3.6,3.6-3.8c0.2-1.9,2.3-3.4,4.2-3.4c2.1,0,4.2,1.7,4.2,3.8v0.4c0-0.3,0.7-0.5,1.4-0.5c0.4,0,0.8,0.1,1.1,0.2
	c-0.3-0.6-0.4-1.3-0.5-2c0-3.3,2.7-6.1,6-6.1c0,0,0,0,0,0c1.7,0,3.3,0.7,4.5,2c0.7-2.6,3.1-4.4,5.8-4.4
	C109.1,129.2,112.5,127.2,116.2,127.2z"/>
<path id="right_far_cloud-2" class="st0" d="M199.7,33.8c16.5,0,29.9,13.4,29.9,29.9c0,0,0,0,0,0c0,0.9,0,1.7-0.1,2.6
	c0.7-0.1,1.5-0.1,2.2-0.1c3.9,0,7.7,1.3,10.8,3.7c2.5-9.4,12.2-15,21.6-12.4c9.4,2.5,15,12.2,12.4,21.6c-0.5,1.9-1.4,3.8-2.5,5.4
	c2.6,0.4,5,1.7,6.7,3.7c0.9-5.1,5.3-8.9,10.5-8.9c0.6,0,1.3,0,1.9,0.1c-0.1-0.7-0.1-1.3-0.1-2c0-8.4,6.8-15.3,15.3-15.3
	s15.3,6.8,15.3,15.3c0,1.5-0.2,2.9-0.6,4.3c4,0.6,6.9,4,6.9,8c0,1.1-0.2,2.2-0.7,3.3c0.7-0.4,1.6-0.6,2.5-0.6c2.8,0,5.1,2.3,5.1,5.1
	c0,0,0,0,0,0c0,0.7-0.1,1.4-0.2,2.1l62.5,10.4H34.3l47.8-10.4c-1-1.3-1.6-2.9-1.6-4.6c0-3.4,2.6-6.2,5.9-6.6
	c0.1-5.7,4.5-10.5,10.3-10.8c0.7-6,6.1-10.2,12.1-9.5c5.5,0.7,9.6,5.3,9.6,10.8c0,0.4,0,0.7,0,1.1c1.6-0.9,3.5-1.4,5.4-1.4
	c1.3,0,2.6,0.2,3.8,0.7c-0.7-1.9-1-3.8-1-5.8c0-9.7,7.9-17.6,17.6-17.6c5,0,9.7,2.1,13,5.7c2.1-7.5,8.9-12.7,16.7-12.8
	C179.1,39.5,189,33.8,199.7,33.8L199.7,33.8z"/>
<g id="middle_cloud">
	<path id="lower-right_cloud" class="st0" d="M57.2,438.3c43.3,0,78.5,35.2,78.4,78.5c0,0.1,0,0.1,0,0.2c0,2.3-0.3,4.6-0.4,6.8
		c1.9-0.2,3.8-0.4,5.8-0.4c10.3,0,20.3,3.4,28.4,9.8c6.6-24.7,32-39.3,56.7-32.7s39.3,32,32.7,56.7c-1.4,5.1-3.6,10-6.6,14.3
		c6.9,0.9,13.1,4.4,17.6,9.6c2.3-13.5,14-23.3,27.7-23.3c1.7,0,3.3,0.1,4.9,0.4c-0.2-1.7-0.3-3.5-0.3-5.3c0-22.2,18-40.1,40.2-40.1
		c22.2,0,40.1,18,40.1,40.1c0,3.9-0.5,7.7-1.6,11.4c11.7,1.8,19.7,12.7,17.9,24.3c-0.3,1.8-0.8,3.6-1.5,5.3
		c6.5-3.6,14.7-1.2,18.2,5.3c1.1,2,1.7,4.2,1.6,6.5c0,1.4-0.2,2.7-0.5,4l164.6,26H1V462.5C14,447.6,34.9,438.3,57.2,438.3z"/>
	<path id="lower-left-cloud" class="st0" d="M1296.2,414.7c43.5,0,78.7,35.3,78.7,78.7c0,2.3-0.1,4.6-0.3,6.9
		c1.9-0.3,3.8-0.4,5.8-0.4c7.1,0,14.6,1.6,19.6,4.4V612H861l125.8-25.8c-6.2-7-5.6-17.7,1.4-23.9c2.7-2.4,6.2-3.9,9.9-4.2
		c0.1-15.1,12-27.5,27.1-28.3c2-15.7,16.2-26.8,31.9-24.9c14.3,1.8,25.1,14,25.1,28.4c0,1,0,1.9-0.1,2.9c4.3-2.5,9.2-3.8,14.1-3.7
		c3.4,0,6.8,0.6,10,1.8c-8.5-24.1,4.3-50.6,28.4-59c17.5-6.1,37-1.2,49.5,12.4c5.6-19.7,23.5-33.3,44-33.6
		C1242,429.7,1268.1,414.7,1296.2,414.7L1296.2,414.7z"/>
	<g id="middle_cloud-2">
		<path class="st1" d="M1373.5,500.3c8.8-1.1,18.5,0.3,25.5,4V612H880.8l109.3-24.2c-10.8-12.1-3.1-27.6,9.9-28.6
			c0.1-15.2,10.2-25.9,25.2-26.7c1.8-14.3,14-25,28.4-25.1c17,0,29,11.9,27.3,28.7c4.6-2.6,22-1.3,27.6,0.8
			c-9.8-29.1,15.8-60,38.9-60c19.5,0,32.2,5.6,40.7,14.8c5.5-19.2,20.7-31,41.6-31.3C1277.4,378.1,1376.8,423.7,1373.5,500.3
			L1373.5,500.3z"/>
		<path class="st1" d="M129.4,528.5c12.3-1.6,31.4-2.8,41.2,4.8c24.9-64.4,118.3-19,76.9,40.7c7,0.9,19,2.2,23.3,7.3
			c2.6-15.3,17.1-25.5,32.4-22.9c0.1,0,0.1,0,0.2,0c-3.1-24,14.8-41,39.1-41c27,0,42.1,25.3,34.6,50.8c14,2.1,22.6,17.9,17,30.6
			c10.4-5.7,21.5,3.9,18.2,15.4L582.1,636H2V462.5C53,415.2,135.9,454,129.4,528.5z"/>
	</g>
</g>
<g id="mountain">
	<polygon class="st2" points="0,587.3 23.2,583.5 38.6,577.1 46.8,567.8 72.7,565 85.6,553.9 113.4,555.7 122.6,568.7 144.9,569.6 
		154.1,579.8 174.5,577.1 209.7,583.5 223.6,579.8 245.8,582.6 281.1,571.5 302.3,553 324.6,560.4 341.2,543.7 361.6,559.5 
		376.5,593.7 379.2,595.6 411.7,619.7 420.9,630.8 436.7,627.1 450.6,620.6 461.7,623.4 497.7,598.9 527.4,603.5 559,585.4 
		576.6,557.6 609,544.6 623.8,529.8 646,528 673.8,489 679.4,462.2 697,453.9 710.9,425.2 727.5,419.6 738.7,399.2 778.5,408.5 
		801.7,444.6 822,445.5 851.7,490 876.7,490.9 913.8,534.5 943.4,538.2 949,554.8 971.2,569.6 1012.9,571.1 1024.9,554 1038.8,554 
		1055.5,529.4 1070.3,536.6 1101.8,559.6 1114.8,587.3 1147.2,597 1182.4,565 1222.2,565 1231.5,547.9 1250.9,495.8 1294.5,496.6 
		1305.6,471.5 1336.2,474.3 1354.7,514.1 1384.2,528 1399,544.6 1399,980 0,980 	"/>
	<path class="st0" d="M420.9,630.8l15.8-3.7l13.9-6.5l11.1,2.8l36.1-24.5l29.6,4.6l31.6-18.1l17.6-27.8l16.2-6.5l20.4,2.4l2.3,17.6
		l-5.3,3.7l-8.6,10.4l5.1,11.6l-0.9,2.8l11.8-7.2l3-20.4l15.3-6l17.2-13l-17.2,17.2l-6.5,0.9l-1.9,17.1l-5.6,9.7l-11.1,13.4
		l-13.4,15.3l-20.8,13.4l-0.9,1.4l-15.3,15.3l-34.7,25.5l16.2-1.9l30.1-16.2l13-0.5l13.9-10.2l19-9.7l-3.7,8.3l26.4-12l7.4-13
		l1.4-1.4l18.1-11.6l21.3-11.1l-4.2,7.4l-1.9,13l-7.4,11.6l17.1-7.9l27.3-29.2l1.4-1.4l19.9-13l7.9-15.3l-4.6-14.8l10.6-9.7
		l13.4-14.4l1.9-11.1l11.6,6.5l-2.3,17.6l4.2,10.6l-4.6,10.6l-14.8,16.7l-6.5,14.4l6.9-6.5l20.8-11.6l14.8-22.7l-13.4-1.4l3.3-32.4
		l-7.4,2.8l-7.4-34.3l-5.1,19.9l-7.4,2.3l-20.4,9.7l-13,2.3l-2.8-25l7.7-7.9l2.6-13.9v-12l-7.7,8.8l-1.1-8.3l14.3-19.4l-2.4,14.4
		l12.5-10.2l1.4-12.5l1.9-18.1l-8.3-5.1l-5.1-9.7l23.4,1.6l0,0l-27.1-6.3l-11.1,20.4l-16.7,5.6L697,453.9l-17.6,8.3l-5.6,26.9
		L646,528l-22.2,1.8L609,544.6l-16.2,6.5l-13.7,8.2l-5.6,34l-10,9l-0.7,0.9l6.9,4.9l23.6-2.1l9.9-4.6L589.8,617l-21.8,9l-9,1.4
		l-7.6,4.4l-0.6-0.2l-13.3,1.9l-16.2,5.6l15.7-9.1l7-7.5l4.9-0.9l1.4-11.3l8.8-6.7l0.7-14.1l-5.1,9.3l-20.9,8.8l-2.8,13.2l-26,5.3
		l-7.1,5.3l-9,4.2l-14.8,9l-20.2,4.2l14.4-6.7l11.8-7.6l17.8-11.7l3.1-11l-21,8.3l-8.5-1.3l-9.9,9.9l-6.9,0.9l-11.1,3.7L420.9,630.8
		z M1147.2,597l35.2-32h39.8l-34,3.8l-19.9,32.7l-23.6,7.5L1147.2,597z M1222.2,564.1l9.3-16.7l19.4-51.9l43.6,0.9l11.1-25
		l11.8,11.7l-14.4,15.3l2.3,5.1l-4.2,6l-10.2,6l0.5-13l-34.7-1.4l19.9,26.4l-5.6,18.5l7.9,3.7v9.3l8.3,10.6l21.3-24.1l-5.1-13
		l18.1-23.2l9.3,24.5l-20.9,11.1l-13.4,22.2l5.6,3.7l1.9,19.4l16.2-21.3l5.5,28.7l-24.1,40.3l4.2-13.4l-3.7-28.3
		c-1.7-0.6-0.9-0.5-2.3-0.5l-10.6,4.6l-6.9-24.5l-14.4-6l0.5-20.8L1254,549h-2.3l-13,22.2l-6.5,7.1l-15.8,13.8l-0.9,1.3l6-20.9
		L1222.2,564.1z M223.6,579.8l-13.9,3.7l-35.2-6.5l-20.4,2.8l-9.3-10.2l-22.2-0.9l-9.2-13l-27.8-1.9l19.2,6.6l2.3,6l9.3,3.6l6.5,6.9
		h-9.7l6,7l-9.2-1.6l-15.8-3.8l9.3,8.3l33.8,5.1l18.1,11.1l-8.8-8.8l-22.7-9.2l18.5-7l14.4,7.4l2.8,6l11.1,1.9l3.2,7.4l8.8,9.2
		l-21.3-0.9l24.1,5.1l26.9-5.6l-21.3-0.9l11.1-12l-19-13.4l25.9,6.5L223.6,579.8z M328.5,640.6l-7-13l-0.5-10.6l6.5,12L328.5,640.6z
		 M431.4,663.8l-17.2-4.2l10.7,9.2l20.4,1.4l18.1-11.1l-19.5,6L431.4,663.8z M376.7,630l-6-10.2l-17.6-6.5l-2.8-7l0.9,22.7l11.1,9.7
		l3.2,14.4l27.8,21.3l-5.1-13l-3.2-18.1l9.7,2.3l7.4,9.2l-8.3-15.3l-9.7-4.4L376.7,630z M411.7,619.7L380,604.5v10.2l-8.8-0.9
		l-7.9-11.6l-10.7-13l5.6-0.9l-9.3-14.8l-0.9-15.8l-6.5-6l-0.2-8l20.4,15.8l14.9,34.3L411.7,619.7z M1075,619.3l23.6-7.6l-9.7,8.5
		l-7.9,9.7l-14.4,3.3l7.4-5.6L1075,619.3z M971.2,569.6l32,6.1l-10.2,6l-7.2,4.3l25.7,18.4l6.5-3.2l6.5,3.2l-2.3,7.2l10.2,15
		l-1.9,25.9l6-21.8l9.7,1.4l8.8-8.8l6-15.3l-19.5,14.4l1.9-21.3l12-6.5l1.4-7l17.1-24.1l-18.5-34.3l-16.7,24.6h-13.9l-12,17.1
		L971.2,569.6z M858.9,614.9l12.3-3.2l-12.3,7.8l-8.8,2.3L858.9,614.9z M865.1,568.3l-27.3,7L827.6,592l23.6-8.8L835.5,610
		l-24.1,20.8l40.3-22.2l12.5-32.4L865.1,568.3z"/>
</g>
<polygon id="grass" class="st3" points="0,635.3 10.9,615.3 20.9,635.3 31,623.6 40.2,641.2 46.6,635.3 51.3,648.6 64.2,635.3 
	78.2,656 86.5,644 93,659.7 99.5,650.5 106,663.4 115.2,642.2 124.5,656 133.8,642.2 142.1,656 155.1,635.3 174.6,665.3 
	184.8,651.4 191.2,666.2 201.4,653.2 214.4,679.2 224.6,659.7 235.7,674.6 248.7,657 262.6,676.4 271.9,670.9 280.2,694 
	287.7,676.4 292.3,690.3 305.3,676.4 309.9,698.6 325.7,683.8 336.8,696.8 347,674.6 352.6,683.8 367.4,669 374.8,687.5 
	382.6,671.9 386.9,694.9 392.8,686.5 405.4,709.8 415.3,677.5 422.1,694 435.9,669.6 447.1,693.1 460.4,679.8 467.5,696.8 
	478.8,676.3 491.6,700.5 496.3,691.2 509,706.3 516.6,687.5 528.4,699.7 537.7,694.8 545.4,707.9 557.4,687.5 565.3,703.3 
	582.2,686 589.9,697.7 596.4,682.9 608.4,699.6 617.7,680.1 631.6,704.2 635.3,687.5 643.7,704.2 662.2,665.3 680.7,694.9 
	687.2,674.6 700,689 705.7,669.9 719.7,690.3 726.1,678.2 735.4,704.2 745.6,688.4 751.2,706 767,681 786.4,701.4 797.5,676.7 
	820.7,703 823.5,703 833.7,676.7 842,693.3 855,682 866.2,686.7 875.4,673.6 881,681.1 886.5,655.1 903.2,675.5 907.8,666.2 
	925.5,681 938.4,660.7 948.6,671.8 960.7,661.6 964.4,668.1 975.5,644 984.8,656 989.5,632.9 1004.3,661.6 1010.8,654.2 
	1018.2,672.7 1031.1,666.2 1041.3,690.3 1052.5,678.2 1061.7,703.3 1072.9,682 1083.1,694.9 1096,675.5 1110.9,683.8 1116.4,665.3 
	1141.5,681 1148,649.5 1163.7,664.4 1175.8,629.2 1186,670.9 1195.2,655.1 1203.6,685.7 1215.6,668.1 1223.1,681 1230.5,673.6 
	1234.2,687.5 1249,673.6 1269.4,691.2 1274,672.7 1287,687.5 1307.4,663.4 1323.2,681 1342.6,672.7 1358.4,661.6 1372.3,664.4 
	1373.2,636.6 1384.4,640.3 1388.6,619 1400,628.3 1400,980 0,980 "/>
<g id="road">
	<rect x="1" y="752" class="st4" width="1399" height="228"/>
	<g id="road-2">
		<polygon class="st5" points="640.6,752 759.5,752 1341,980 59,980 		"/>
		<path class="st0" d="M654.9,752h3.7L154.4,980h-39.5L654.9,752z M745.1,752h-3.6l504.2,228h39.5L745.1,752z M698.5,753h3l0.1,4
			h-3.3L698.5,753z M701.7,758l0.4,6H698l0.4-6H701.7z M702.3,767l0.6,11h-5.7l0.6-11H702.3z M703.3,783l0.9,12h-8.4l1.1-12H703.3z
			 M704.7,802l0.7,11h-10.9l0.7-11H704.7z M706.1,823l0.9,13h-14l0.9-13H706.1z M707.7,849l1.4,19h-18.2l1.4-19H707.7z M710,883
			l2.4,35h-24.8l2.4-35H710z M713.4,934l2.6,41h-32.1l2.6-41H713.4z"/>
	</g>
</g>
<g id="tree-right">
	<g>
		<path class="st0" d="M1071.6,536.3c11.7,20.7,25,34.8,46.3,49.3c-8.2,1.6-14.5,4-22.6,4.9c9.8,8,18.4,17.1,29.5,25.1
			c-5.4,3.3-11,6.6-20.4,8.3c13.4,6.8,26.5,15.8,31.8,21c-5.1,4.2-11.7,9.3-22.2,11.6c11,5.1,23.6,14,28.5,18.8
			c-7.2,6.1-15.8,10.4-25,12.4c15.8,8.4,28.9,17.4,34.6,23c-6.2,5.3-13.4,9.3-21.3,11.5c12.1,4.9,23,12.2,32.1,21.5
			c-12.4,10.3-45.7,18.9-77.1,21.7c0.7,8.8,2.1,17.6,4.1,26.2c-12.8,6.5-24.9,6.1-35.1,0c2.7-8.4,4.7-17,6-25.7
			c-26.4-1.9-59.1-8.2-74.7-21.5c7.8-6.1,18.8-13.4,30.5-21.3c-7.6-1.7-15.1-4.3-22.1-7.7c9-7.1,22.3-16.6,35.7-27
			c-10.4-2-19.6-4.8-26.6-8.4c7.7-6,18.8-14,30.2-22.8c-9.6-1.8-18.1-4.4-24.6-7.7c8.5-6.7,21.7-16,34.2-26
			c-9.2-1.6-18.1-4.5-26.4-8.5c8.9-7,20.7-16.9,31.8-27.5c-5.5-1.6-10.9-3.7-16-6.4C1047.6,569.5,1059.9,553.5,1071.6,536.3
			L1071.6,536.3z"/>
		<path class="st6" d="M1071.6,536.3c11.7,20.7,27,38.2,48.1,50.4c-8.2,1.6-16.4,2.9-24.5,3.8c9.3,10.2,20.1,18.9,32,25.8
			c-5.5,3.3-13.4,5.9-22.8,7.6c14.3,9.7,28.6,17.6,33.8,22.8c-5.1,4.2-13.7,7.5-24.2,9.8c13.2,8.6,25.3,15.6,30.3,20.4
			c-5.6,4.7-15.1,8.2-26.8,10.7c15.5,10.2,30.1,18.5,35.9,24.2c-5,4.2-12.9,7.6-22.6,10.3c14.7,9.4,27.8,17.1,33.3,22.6
			c-12.4,10.3-45.8,18.7-77.2,21.4c0.8,8.9,2.4,17.7,4.8,26.4c-11.6,6-25.5,5.7-36.9-0.9c2.7-8.4,4.7-17,6-25.7
			c-26.4-1.9-56.1-8.3-71.7-21.6c7.8-6.1,30.1-16.3,51.8-17.6c-22.7-1.9-37.4-8.2-43.5-11.3c9-7.1,33.2-22.4,55.5-25.1
			c-23.5-1.3-39.7-6.7-46.7-10.3c7.7-6,30.1-19.8,55.3-21.6c-32.3-2-42-6.3-48.5-9.7c8.5-6.7,27.8-18.8,54.2-22.9
			c-23.8-2.2-39.4-6.9-47-10.7c8.9-7,34-22,50.4-25.8c-14.4-0.7-31.1-6.3-32.3-9C1048.1,571.5,1063.6,553.7,1071.6,536.3
			L1071.6,536.3z"/>
	</g>
	<g>
		<path class="st0" d="M1272.7,394.6c21.9,39,47,65.4,86.9,92.7c-15.4,3-27.2,7.6-42.5,9.2c18.5,15.1,34.6,32,55.5,47.2
			c-10.2,6.2-20.7,12.4-38.3,15.6c25.2,12.8,49.9,29.7,59.7,39.4c-9.6,7.9-22.1,17.4-41.9,21.7c16.8,7.8,35.9,20.4,46.9,29.7v10.7
			c-12.1,8.9-25.9,15.1-40.5,18.2c14,7.2,27.5,15.3,40.5,24.1v34.9c-3,2.2-9.8,4.1-15.5,5.7c5.5,2.2,12.5,4.7,15.5,7.1v54.7
			c-28,9.2-64.7,16.2-99.8,19.2c2.5,27,6.5,44,7.8,49.3c-24.1,12.2-46.7,11.4-66,0c2.7-7.5,8.1-27.2,11.3-48.2
			c-49.6-3.5-110.9-15.4-140.3-40.4c14.7-11.5,35.3-25.1,57.3-40c-15.9-3.8-30-8.6-41.5-14.5c17-13.3,41.9-31.1,67.1-50.7
			c-19.5-3.7-36.8-8.9-50-15.7c14.4-11.3,35.3-26.3,56.7-42.7c-18-3.4-34-8.2-46.2-14.5c16-12.6,40.7-30,64.2-48.9
			c-18.4-3.5-35.5-8.8-49.7-16.1c16.7-13.2,39-31.7,59.8-51.6c-10.3-3-20.4-7-29.9-11.9C1227.7,456.9,1250.8,426.9,1272.7,394.6z"/>
		<path class="st6" d="M1272.7,394.6c21.9,39,50.7,71.8,90.3,94.7c-15.4,2.9-30.7,5.5-46,7.1c17.4,19.2,37.7,35.5,60,48.5
			c-10.2,6.2-25.2,11.1-42.9,14.3c26.7,18.2,53.6,33,63.5,42.7c-9.6,7.9-25.9,14.1-45.7,18.4c18.3,11.9,35.9,22.2,46.9,30.4v14.4
			c-10,5.7-24.4,10.3-40.5,13.8c14.5,9.6,29.5,18.2,40.5,25.8v33.9c-3,1.8-10,3.4-15.5,4.9c5.3,3.4,10.5,6.7,15.5,9.8v54.5
			c-28,8.8-63.6,15.3-97.8,18.2c1.5,16.7,4.6,33.3,9.1,49.5c-24.1,12.2-49.9,9.7-69.2-1.7c2.7-7.5,8.1-27.2,11.3-48.2
			c-49.6-3.5-105.2-15.6-134.6-40.6c14.7-11.5,56.6-30.6,97.3-33.1c-42.6-3.6-70.3-15.4-81.7-21.3c16.9-13.3,62.3-42,104.2-47.2
			c-44.1-2.3-74.6-12.6-87.8-19.4c14.4-11.3,56.5-37.1,103.9-40.6c-60.7-3.7-78.8-11.9-91.1-18.1c16-12.5,52.2-35.4,101.9-43
			c-44.8-4.1-74-13-88.2-20.2c16.7-13.2,63.8-41.2,94.6-48.4c-26.9-1.4-58.3-11.9-60.6-16.9C1228.6,460.7,1257.8,427.3,1272.7,394.6
			L1272.7,394.6z"/>
	</g>
</g>
<g id="tree-left">
	<g>
		<path class="st0" d="M308,569.2c-11.7,20.8-25,34.8-46.3,49.4c8.2,1.6,14.5,4,22.7,4.9c-9.8,8-18.4,17.1-29.6,25.1
			c5.5,3.3,11,6.6,20.4,8.3c-13.4,6.8-26.6,15.8-31.8,21c5.1,4.2,11.7,9.3,22.2,11.6c-11,5.1-23.6,14-28.5,18.8
			c7.2,6.1,15.7,10.4,25,12.4c-15.8,8.4-28.9,17.3-34.6,23c6.2,5.3,13.4,9.2,21.3,11.4c-12.1,4.9-23,12.3-32.1,21.5
			c12.4,10.3,45.7,18.9,77.1,21.6c-0.7,8.8-2.1,17.6-4.1,26.3c12.8,6.5,24.9,6.1,35.2,0c-2.7-8.4-4.7-17-6-25.7
			c26.4-1.9,59-8.2,74.7-21.5c-7.8-6.2-18.8-13.4-30.5-21.3c7.6-1.7,15-4.3,22.1-7.7c-9-7.1-22.3-16.6-35.7-27
			c10.4-2,19.5-4.7,26.6-8.3c-7.7-6-18.8-14-30.1-22.8c9.6-1.8,18.1-4.3,24.6-7.7c-8.5-6.7-21.7-16-34.2-26
			c9.8-1.9,18.9-4.7,26.4-8.6c-8.9-7-20.8-16.8-31.8-27.5c5.5-1.6,10.9-3.7,16-6.3C332,602.4,319.7,586.4,308,569.2L308,569.2z"/>
		<path class="st6" d="M308,569.2c-11.7,20.8-27,38.2-48.1,50.5c8.2,1.6,16.4,2.9,24.5,3.8c-9.3,10.2-20.1,18.9-32,25.8
			c5.4,3.3,13.4,5.9,22.8,7.6c-14.3,9.7-28.6,17.6-33.8,22.8c5.1,4.2,13.7,7.5,24.3,9.8c-13.2,8.6-25.4,15.6-30.3,20.4
			c5.6,4.6,15.1,8.2,26.8,10.7c-15.5,10.2-30.1,18.5-35.9,24.2c5,4.2,12.9,7.6,22.5,10.3c-14.7,9.4-27.7,17.1-33.3,22.6
			c12.4,10.3,45.8,18.7,77.2,21.4c-0.8,8.9-2.4,17.7-4.8,26.3c11.6,6.1,25.5,5.7,36.9-0.9c-2.7-8.4-4.7-17-6-25.7
			c26.4-1.9,56-8.3,71.7-21.6c-7.8-6.1-30.1-16.2-51.8-17.6c22.7-1.9,37.4-8.2,43.5-11.3c-9-7.1-33.2-22.3-55.5-25.1
			c23.5-1.3,39.7-6.7,46.8-10.3c-7.7-6-30.1-19.8-55.3-21.6c32.3-2,42-6.3,48.5-9.7c-15.9-12-34.5-19.9-54.2-22.9
			c23.9-2.2,39.4-6.9,47-10.8c-8.9-7-34-22-50.3-25.7c14.3-0.8,31.1-6.3,32.3-9C331.5,604.4,315.9,586.7,308,569.2L308,569.2z"/>
	</g>
	<g>
		<path class="st0" d="M92.7,381.9c-23.1,41-49.5,68.8-91.5,97.5c16.2,3.1,29.3,7.9,45.4,9.6C31.2,501.6,18,515.4,2,528.5v17.6
			c8.5,4.4,17.7,7.4,27.2,9c-9.3,4.7-20.2,10-27.2,15.3v46.8c2.7,0.9,5.5,1.7,8.3,2.2c-2.7,1.3-6.3,2.6-8.3,4.1v57.2
			c0.5,0.2,0.9,0.3,1.4,0.3L2,681.8v143.3c20.9,4.5,42,7.6,63.2,9.5c-1.5,17.5-4.3,34.8-8.4,51.9c25.3,12.8,49,12.1,69.3,0.1
			c-2.8-7.9-8.6-28.7-12-50.7c52.2-3.7,116.7-16.2,147.6-42.5c-15.4-12.1-37.1-26.4-60.3-42.1c16.7-4,31.6-9.1,43.7-15.3
			c-17.9-14-44.1-32.8-70.6-53.4c20.5-3.9,38.7-9.3,52.6-16.5c-15.2-11.9-37.2-27.6-59.6-45c18.9-3.6,35.8-8.6,48.6-15.2
			c-16.8-13.2-42.8-31.5-67.6-51.4c19.4-3.7,37.4-9.3,52.3-16.9c-17.6-13.9-41-33.3-63-54.3c10.9-3.2,21.5-7.4,31.5-12.6
			C140.1,447.6,115.7,415.9,92.7,381.9L92.7,381.9z"/>
		<path class="st6" d="M93.3,381.9C70.8,421.8,41,455.6,2,479.7v2.5c15,2.9,30.2,5.3,45.2,6.9C33.8,503.8,18,517.1,2,528.7v19.5
			c7,2.8,17.2,5.1,27.2,6.9C19.9,561.5,10,567.4,2,572.8v44.7c2,0.7,5.5,1.3,8.3,2C7.5,621.3,4,623,2,624.8v56
			c0.5,0.2,0.9,0.3,1.4,0.3L2,682v145.3c20.2,4.1,40.6,7.1,61.2,8.9c-2.6,28.4-8.5,46.6-9.8,52.1c25.3,12.8,52.4,10.2,72.7-1.8
			c-2.8-7.9-8.6-28.7-12-50.7c52.2-3.7,110.7-16.4,141.6-42.7c-15.4-12.1-59.5-32.1-102.4-34.8c44.9-3.8,74-16.2,86-22.4
			c-17.9-14-65.7-44.2-109.7-49.7c46.4-2.5,78.5-13.3,92.4-20.4c-15.2-11.9-59.4-39.1-109.3-42.7c63.9-3.9,83-12.5,95.8-19.1
			c-16.8-13.2-54.9-37.3-107.2-45.3c47.1-4.3,77.9-13.7,92.8-21.3c-17.6-13.9-67.1-43.4-99.5-50.9c28.3-1.5,61.7-12.5,64.1-17.9
			C139.4,451.5,109,416.4,93.3,381.9z"/>
	</g>
</g>
</svg>
